# xmcd
#
# Track frame offsets:
#	150
#	16604
#	34122
#	45909
#	59138
#	77728
#	91127
#	106167
#	121718
#
# Disc length: 1840 seconds
#
# Revision: 1
# Processed by: cddbd v1.5.2PL0 Copyright (c) Steve Scherf et al.
# Submitted via: audiograbber 1.83.01
#
DISCID=5d072e09
DTITLE=Various Artist - CD Tex Vol.67 July 2008
DYEAR=2008
DGENRE=Country
TTITLE0=Darren Kozelsky - She Got Me There
TTITLE1=Adam Fears - Running Out Of Texas
TTITLE2=Josh Logan - The Past Of Least Resistance
TTITLE3=Jerry Lee Surber - Hey... Guitar
TTITLE4=Brian Collins - He's Coming Home With Me
TTITLE5=Jesse Jennings - The Final Football Game
TTITLE6=Vince Hatfield - I Always Said You'd Be Back
TTITLE7=The Pear Ratz - Killin' U2
TTITLE8=Kyle Bennet Band - Adios
EXTD=
EXTT0=
EXTT1=
EXTT2=
EXTT3=
EXTT4=
EXTT5=
EXTT6=
EXTT7=
EXTT8=
PLAYORDER=
